<?xml version="1.0" encoding="UTF-8" standalone="no"?>
<svg xmlns:ffdec="https://www.free-decompiler.com/flash" xmlns:xlink="http://www.w3.org/1999/xlink" ffdec:objectType="shape" height="12.0px" width="47.0px" xmlns="http://www.w3.org/2000/svg">
  <g transform="matrix(1.0, 0.0, 0.0, 1.0, 23.5, 6.0)">
    <path d="M-12.5 -1.0 L-13.2 -0.7 -13.5 0.0 -13.2 0.7 -12.5 1.0 Q-12.1 1.0 -11.8 0.7 -11.5 0.4 -11.5 0.0 -11.5 -0.4 -11.8 -0.7 -12.1 -1.0 -12.5 -1.0 M-12.5 5.0 L-17.5 0.0 -12.5 -5.0 -7.5 0.0 -12.5 5.0" fill="#00ccff" fill-rule="evenodd" stroke="none"/>
    <path d="M-12.5 -1.0 Q-12.1 -1.0 -11.8 -0.7 -11.5 -0.4 -11.5 0.0 -11.5 0.4 -11.8 0.7 -12.1 1.0 -12.5 1.0 L-13.2 0.7 -13.5 0.0 -13.2 -0.7 -12.5 -1.0" fill="#000000" fill-rule="evenodd" stroke="none"/>
    <path d="M-7.5 5.0 L-12.5 5.0 -17.5 5.0 -22.5 0.0 -17.5 -5.0 -12.5 -5.0 -7.5 -5.0 -2.5 0.0 -7.5 5.0 M-12.5 5.0 L-7.5 0.0 -12.5 -5.0 -17.5 0.0 -12.5 5.0" fill="#ff0000" fill-rule="evenodd" stroke="none"/>
    <path d="M-7.5 -5.0 L17.5 -5.0 12.5 0.0 17.5 5.0 -7.5 5.0 -2.5 0.0 -7.5 -5.0" fill="url(#gradient0)" fill-rule="evenodd" stroke="none"/>
    <path d="M12.5 0.0 L22.5 -5.0 22.5 5.0 12.5 0.0" fill="url(#gradient1)" fill-rule="evenodd" stroke="none"/>
    <path d="M-7.5 5.0 L-12.5 5.0 -17.5 5.0 -22.5 0.0 -17.5 -5.0 -12.5 -5.0 -7.5 -5.0 17.5 -5.0 12.5 0.0 22.5 -5.0 22.5 5.0 12.5 0.0 17.5 5.0 -7.5 5.0 M-12.5 5.0 L-7.5 0.0 -12.5 -5.0 -17.5 0.0 -12.5 5.0 Z" fill="none" stroke="#990000" stroke-linecap="round" stroke-linejoin="round" stroke-width="2.0"/>
  </g>
  <defs>
    <radialGradient cx="0" cy="0" gradientTransform="matrix(0.0164, 0.0, 0.0, 0.0164, 5.0, 0.0)" gradientUnits="userSpaceOnUse" id="gradient0" r="819.2" spreadMethod="pad">
      <stop offset="0.23921568627450981" stop-color="#ffff00"/>
      <stop offset="0.6941176470588235" stop-color="#ff0000"/>
    </radialGradient>
    <linearGradient gradientTransform="matrix(0.0061, 0.0, 0.0, 0.0061, 17.5, 0.0)" gradientUnits="userSpaceOnUse" id="gradient1" spreadMethod="pad" x1="-819.2" x2="819.2">
      <stop offset="0.0" stop-color="#ffff00"/>
      <stop offset="1.0" stop-color="#ff0000"/>
    </linearGradient>
  </defs>
</svg>
